<mxfile host="app.diagrams.net" modified="2020-12-04T09:47:23.673Z" agent="5.0 (Windows NT 10.0; Win64; x64) AppleWebKit/537.36 (KHTML, like Gecko) Chrome/87.0.4280.67 Safari/537.36 Edg/87.0.664.47" etag="3OAZs0rcm8xV3IXu93Ok" version="13.10.8" type="github">
  <diagram id="9x_7SDjcbURhjncNvjT7" name="Page-1">
    <mxGraphModel dx="606" dy="467" grid="1" gridSize="10" guides="1" tooltips="1" connect="1" arrows="1" fold="1" page="1" pageScale="1" pageWidth="827" pageHeight="1169" math="0" shadow="0">
      <root>
        <mxCell id="0" />
        <mxCell id="1" parent="0" />
        <mxCell id="jJX4rCLtaQs6YIwThEBa-51" style="edgeStyle=orthogonalEdgeStyle;rounded=0;orthogonalLoop=1;jettySize=auto;html=1;exitX=0.5;exitY=1;exitDx=0;exitDy=0;entryX=0.5;entryY=0;entryDx=0;entryDy=0;" edge="1" parent="1" source="jJX4rCLtaQs6YIwThEBa-1" target="jJX4rCLtaQs6YIwThEBa-47">
          <mxGeometry relative="1" as="geometry" />
        </mxCell>
        <mxCell id="jJX4rCLtaQs6YIwThEBa-1" value="航空公司" style="rounded=0;whiteSpace=wrap;html=1;" vertex="1" parent="1">
          <mxGeometry x="210" y="120" width="80" height="40" as="geometry" />
        </mxCell>
        <mxCell id="jJX4rCLtaQs6YIwThEBa-60" style="edgeStyle=orthogonalEdgeStyle;rounded=0;orthogonalLoop=1;jettySize=auto;html=1;exitX=1;exitY=0.5;exitDx=0;exitDy=0;entryX=0;entryY=0.5;entryDx=0;entryDy=0;" edge="1" parent="1" source="jJX4rCLtaQs6YIwThEBa-2" target="jJX4rCLtaQs6YIwThEBa-52">
          <mxGeometry relative="1" as="geometry" />
        </mxCell>
        <mxCell id="jJX4rCLtaQs6YIwThEBa-2" value="飞机" style="rounded=0;whiteSpace=wrap;html=1;" vertex="1" parent="1">
          <mxGeometry x="140" y="385" width="80" height="40" as="geometry" />
        </mxCell>
        <mxCell id="jJX4rCLtaQs6YIwThEBa-70" style="edgeStyle=orthogonalEdgeStyle;rounded=0;orthogonalLoop=1;jettySize=auto;html=1;exitX=0.5;exitY=1;exitDx=0;exitDy=0;entryX=0.5;entryY=0;entryDx=0;entryDy=0;" edge="1" parent="1" source="jJX4rCLtaQs6YIwThEBa-3" target="jJX4rCLtaQs6YIwThEBa-52">
          <mxGeometry relative="1" as="geometry" />
        </mxCell>
        <mxCell id="jJX4rCLtaQs6YIwThEBa-3" value="客户" style="rounded=0;whiteSpace=wrap;html=1;" vertex="1" parent="1">
          <mxGeometry x="529" y="120" width="80" height="40" as="geometry" />
        </mxCell>
        <mxCell id="jJX4rCLtaQs6YIwThEBa-61" style="edgeStyle=orthogonalEdgeStyle;rounded=0;orthogonalLoop=1;jettySize=auto;html=1;exitX=1;exitY=0.75;exitDx=0;exitDy=0;entryX=0;entryY=0;entryDx=0;entryDy=0;" edge="1" parent="1" source="jJX4rCLtaQs6YIwThEBa-4" target="jJX4rCLtaQs6YIwThEBa-52">
          <mxGeometry relative="1" as="geometry">
            <Array as="points">
              <mxPoint x="440" y="310" />
              <mxPoint x="440" y="360" />
              <mxPoint x="544" y="360" />
            </Array>
          </mxGeometry>
        </mxCell>
        <mxCell id="jJX4rCLtaQs6YIwThEBa-4" value="航线" style="rounded=0;whiteSpace=wrap;html=1;" vertex="1" parent="1">
          <mxGeometry x="320" y="280" width="80" height="40" as="geometry" />
        </mxCell>
        <mxCell id="jJX4rCLtaQs6YIwThEBa-5" value="机场" style="rounded=0;whiteSpace=wrap;html=1;" vertex="1" parent="1">
          <mxGeometry x="679" y="240" width="80" height="40" as="geometry" />
        </mxCell>
        <mxCell id="jJX4rCLtaQs6YIwThEBa-6" value="编号" style="strokeWidth=2;html=1;shape=mxgraph.flowchart.terminator;whiteSpace=wrap;" vertex="1" parent="1">
          <mxGeometry x="120" y="70" width="60" height="30" as="geometry" />
        </mxCell>
        <mxCell id="jJX4rCLtaQs6YIwThEBa-7" value="编号" style="strokeWidth=2;html=1;shape=mxgraph.flowchart.terminator;whiteSpace=wrap;" vertex="1" parent="1">
          <mxGeometry x="439" y="70" width="60" height="30" as="geometry" />
        </mxCell>
        <mxCell id="jJX4rCLtaQs6YIwThEBa-8" value="编号" style="strokeWidth=2;html=1;shape=mxgraph.flowchart.terminator;whiteSpace=wrap;" vertex="1" parent="1">
          <mxGeometry x="50" y="445" width="60" height="30" as="geometry" />
        </mxCell>
        <mxCell id="jJX4rCLtaQs6YIwThEBa-9" value="编号" style="strokeWidth=2;html=1;shape=mxgraph.flowchart.terminator;whiteSpace=wrap;" vertex="1" parent="1">
          <mxGeometry x="480" y="280" width="60" height="30" as="geometry" />
        </mxCell>
        <mxCell id="jJX4rCLtaQs6YIwThEBa-10" value="名称" style="strokeWidth=2;html=1;shape=mxgraph.flowchart.terminator;whiteSpace=wrap;" vertex="1" parent="1">
          <mxGeometry x="180" y="30" width="60" height="30" as="geometry" />
        </mxCell>
        <mxCell id="jJX4rCLtaQs6YIwThEBa-11" value="地址" style="strokeWidth=2;html=1;shape=mxgraph.flowchart.terminator;whiteSpace=wrap;" vertex="1" parent="1">
          <mxGeometry x="260" y="30" width="60" height="30" as="geometry" />
        </mxCell>
        <mxCell id="jJX4rCLtaQs6YIwThEBa-12" value="联系方式" style="strokeWidth=2;html=1;shape=mxgraph.flowchart.terminator;whiteSpace=wrap;" vertex="1" parent="1">
          <mxGeometry x="320" y="70" width="60" height="30" as="geometry" />
        </mxCell>
        <mxCell id="jJX4rCLtaQs6YIwThEBa-16" value="" style="endArrow=none;html=1;entryX=1;entryY=0.5;entryDx=0;entryDy=0;entryPerimeter=0;exitX=0;exitY=0;exitDx=0;exitDy=0;" edge="1" parent="1" source="jJX4rCLtaQs6YIwThEBa-1" target="jJX4rCLtaQs6YIwThEBa-6">
          <mxGeometry width="50" height="50" relative="1" as="geometry">
            <mxPoint x="390" y="270" as="sourcePoint" />
            <mxPoint x="440" y="220" as="targetPoint" />
          </mxGeometry>
        </mxCell>
        <mxCell id="jJX4rCLtaQs6YIwThEBa-17" value="" style="endArrow=none;html=1;entryX=0.5;entryY=1;entryDx=0;entryDy=0;entryPerimeter=0;exitX=0.25;exitY=0;exitDx=0;exitDy=0;" edge="1" parent="1" source="jJX4rCLtaQs6YIwThEBa-1" target="jJX4rCLtaQs6YIwThEBa-10">
          <mxGeometry width="50" height="50" relative="1" as="geometry">
            <mxPoint x="220" y="130" as="sourcePoint" />
            <mxPoint x="190" y="95" as="targetPoint" />
          </mxGeometry>
        </mxCell>
        <mxCell id="jJX4rCLtaQs6YIwThEBa-18" value="" style="endArrow=none;html=1;entryX=0.5;entryY=1;entryDx=0;entryDy=0;entryPerimeter=0;exitX=0.75;exitY=0;exitDx=0;exitDy=0;" edge="1" parent="1" source="jJX4rCLtaQs6YIwThEBa-1" target="jJX4rCLtaQs6YIwThEBa-11">
          <mxGeometry width="50" height="50" relative="1" as="geometry">
            <mxPoint x="240" y="130" as="sourcePoint" />
            <mxPoint x="220" y="70" as="targetPoint" />
          </mxGeometry>
        </mxCell>
        <mxCell id="jJX4rCLtaQs6YIwThEBa-19" value="" style="endArrow=none;html=1;entryX=0;entryY=0.5;entryDx=0;entryDy=0;entryPerimeter=0;exitX=1;exitY=0;exitDx=0;exitDy=0;" edge="1" parent="1" source="jJX4rCLtaQs6YIwThEBa-1" target="jJX4rCLtaQs6YIwThEBa-12">
          <mxGeometry width="50" height="50" relative="1" as="geometry">
            <mxPoint x="250" y="140" as="sourcePoint" />
            <mxPoint x="230" y="80" as="targetPoint" />
          </mxGeometry>
        </mxCell>
        <mxCell id="jJX4rCLtaQs6YIwThEBa-20" value="姓名" style="strokeWidth=2;html=1;shape=mxgraph.flowchart.terminator;whiteSpace=wrap;" vertex="1" parent="1">
          <mxGeometry x="499" y="30" width="60" height="30" as="geometry" />
        </mxCell>
        <mxCell id="jJX4rCLtaQs6YIwThEBa-21" value="联系方式" style="strokeWidth=2;html=1;shape=mxgraph.flowchart.terminator;whiteSpace=wrap;" vertex="1" parent="1">
          <mxGeometry x="579" y="30" width="60" height="30" as="geometry" />
        </mxCell>
        <mxCell id="jJX4rCLtaQs6YIwThEBa-22" value="特殊客户？" style="strokeWidth=2;html=1;shape=mxgraph.flowchart.terminator;whiteSpace=wrap;" vertex="1" parent="1">
          <mxGeometry x="639" y="70" width="70" height="30" as="geometry" />
        </mxCell>
        <mxCell id="jJX4rCLtaQs6YIwThEBa-23" value="积分" style="strokeWidth=2;html=1;shape=mxgraph.flowchart.terminator;whiteSpace=wrap;" vertex="1" parent="1">
          <mxGeometry x="649" y="125" width="60" height="30" as="geometry" />
        </mxCell>
        <mxCell id="jJX4rCLtaQs6YIwThEBa-24" value="" style="endArrow=none;html=1;entryX=1;entryY=0.5;entryDx=0;entryDy=0;entryPerimeter=0;exitX=0;exitY=0;exitDx=0;exitDy=0;" edge="1" parent="1" source="jJX4rCLtaQs6YIwThEBa-3" target="jJX4rCLtaQs6YIwThEBa-7">
          <mxGeometry width="50" height="50" relative="1" as="geometry">
            <mxPoint x="259" y="130" as="sourcePoint" />
            <mxPoint x="229" y="95" as="targetPoint" />
          </mxGeometry>
        </mxCell>
        <mxCell id="jJX4rCLtaQs6YIwThEBa-25" value="" style="endArrow=none;html=1;entryX=0.5;entryY=1;entryDx=0;entryDy=0;entryPerimeter=0;exitX=0.25;exitY=0;exitDx=0;exitDy=0;" edge="1" parent="1" source="jJX4rCLtaQs6YIwThEBa-3" target="jJX4rCLtaQs6YIwThEBa-20">
          <mxGeometry width="50" height="50" relative="1" as="geometry">
            <mxPoint x="479" y="260" as="sourcePoint" />
            <mxPoint x="529" y="210" as="targetPoint" />
          </mxGeometry>
        </mxCell>
        <mxCell id="jJX4rCLtaQs6YIwThEBa-26" value="" style="endArrow=none;html=1;entryX=0.5;entryY=1;entryDx=0;entryDy=0;entryPerimeter=0;exitX=0.75;exitY=0;exitDx=0;exitDy=0;" edge="1" parent="1" source="jJX4rCLtaQs6YIwThEBa-3" target="jJX4rCLtaQs6YIwThEBa-21">
          <mxGeometry width="50" height="50" relative="1" as="geometry">
            <mxPoint x="479" y="260" as="sourcePoint" />
            <mxPoint x="529" y="210" as="targetPoint" />
          </mxGeometry>
        </mxCell>
        <mxCell id="jJX4rCLtaQs6YIwThEBa-27" value="" style="endArrow=none;html=1;entryX=0;entryY=0.5;entryDx=0;entryDy=0;entryPerimeter=0;exitX=1;exitY=0;exitDx=0;exitDy=0;" edge="1" parent="1" source="jJX4rCLtaQs6YIwThEBa-3" target="jJX4rCLtaQs6YIwThEBa-22">
          <mxGeometry width="50" height="50" relative="1" as="geometry">
            <mxPoint x="479" y="260" as="sourcePoint" />
            <mxPoint x="529" y="210" as="targetPoint" />
          </mxGeometry>
        </mxCell>
        <mxCell id="jJX4rCLtaQs6YIwThEBa-28" value="" style="endArrow=none;html=1;entryX=0;entryY=0.5;entryDx=0;entryDy=0;entryPerimeter=0;exitX=1;exitY=0.5;exitDx=0;exitDy=0;" edge="1" parent="1" source="jJX4rCLtaQs6YIwThEBa-3" target="jJX4rCLtaQs6YIwThEBa-23">
          <mxGeometry width="50" height="50" relative="1" as="geometry">
            <mxPoint x="479" y="260" as="sourcePoint" />
            <mxPoint x="529" y="210" as="targetPoint" />
          </mxGeometry>
        </mxCell>
        <mxCell id="jJX4rCLtaQs6YIwThEBa-30" value="型号" style="strokeWidth=2;html=1;shape=mxgraph.flowchart.terminator;whiteSpace=wrap;" vertex="1" parent="1">
          <mxGeometry x="250" y="445" width="60" height="30" as="geometry" />
        </mxCell>
        <mxCell id="jJX4rCLtaQs6YIwThEBa-31" value="头等舱座位数" style="strokeWidth=2;html=1;shape=mxgraph.flowchart.terminator;whiteSpace=wrap;" vertex="1" parent="1">
          <mxGeometry x="90" y="485" width="80" height="40" as="geometry" />
        </mxCell>
        <mxCell id="jJX4rCLtaQs6YIwThEBa-32" value="经济舱座位数" style="strokeWidth=2;html=1;shape=mxgraph.flowchart.terminator;whiteSpace=wrap;" vertex="1" parent="1">
          <mxGeometry x="190" y="485" width="80" height="40" as="geometry" />
        </mxCell>
        <mxCell id="jJX4rCLtaQs6YIwThEBa-33" value="" style="endArrow=none;html=1;entryX=0;entryY=1;entryDx=0;entryDy=0;exitX=1;exitY=0.5;exitDx=0;exitDy=0;exitPerimeter=0;" edge="1" parent="1" source="jJX4rCLtaQs6YIwThEBa-8" target="jJX4rCLtaQs6YIwThEBa-2">
          <mxGeometry width="50" height="50" relative="1" as="geometry">
            <mxPoint x="200" y="375" as="sourcePoint" />
            <mxPoint x="250" y="325" as="targetPoint" />
          </mxGeometry>
        </mxCell>
        <mxCell id="jJX4rCLtaQs6YIwThEBa-34" value="" style="endArrow=none;html=1;exitX=0.5;exitY=0;exitDx=0;exitDy=0;exitPerimeter=0;entryX=0.25;entryY=1;entryDx=0;entryDy=0;" edge="1" parent="1" source="jJX4rCLtaQs6YIwThEBa-31" target="jJX4rCLtaQs6YIwThEBa-2">
          <mxGeometry width="50" height="50" relative="1" as="geometry">
            <mxPoint x="200" y="375" as="sourcePoint" />
            <mxPoint x="250" y="325" as="targetPoint" />
          </mxGeometry>
        </mxCell>
        <mxCell id="jJX4rCLtaQs6YIwThEBa-35" value="" style="endArrow=none;html=1;exitX=0.5;exitY=0;exitDx=0;exitDy=0;exitPerimeter=0;entryX=0.75;entryY=1;entryDx=0;entryDy=0;" edge="1" parent="1" source="jJX4rCLtaQs6YIwThEBa-32" target="jJX4rCLtaQs6YIwThEBa-2">
          <mxGeometry width="50" height="50" relative="1" as="geometry">
            <mxPoint x="200" y="375" as="sourcePoint" />
            <mxPoint x="250" y="325" as="targetPoint" />
          </mxGeometry>
        </mxCell>
        <mxCell id="jJX4rCLtaQs6YIwThEBa-36" value="" style="endArrow=none;html=1;exitX=0;exitY=0.5;exitDx=0;exitDy=0;exitPerimeter=0;entryX=1;entryY=1;entryDx=0;entryDy=0;" edge="1" parent="1" source="jJX4rCLtaQs6YIwThEBa-30" target="jJX4rCLtaQs6YIwThEBa-2">
          <mxGeometry width="50" height="50" relative="1" as="geometry">
            <mxPoint x="200" y="375" as="sourcePoint" />
            <mxPoint x="250" y="325" as="targetPoint" />
          </mxGeometry>
        </mxCell>
        <mxCell id="jJX4rCLtaQs6YIwThEBa-38" value="里程" style="strokeWidth=2;html=1;shape=mxgraph.flowchart.terminator;whiteSpace=wrap;" vertex="1" parent="1">
          <mxGeometry x="490" y="240" width="60" height="30" as="geometry" />
        </mxCell>
        <mxCell id="jJX4rCLtaQs6YIwThEBa-39" value="起点" style="strokeWidth=2;html=1;shape=mxgraph.flowchart.terminator;whiteSpace=wrap;" vertex="1" parent="1">
          <mxGeometry x="440" y="210" width="60" height="30" as="geometry" />
        </mxCell>
        <mxCell id="jJX4rCLtaQs6YIwThEBa-40" value="终点" style="strokeWidth=2;html=1;shape=mxgraph.flowchart.terminator;whiteSpace=wrap;" vertex="1" parent="1">
          <mxGeometry x="370" y="220" width="60" height="30" as="geometry" />
        </mxCell>
        <mxCell id="jJX4rCLtaQs6YIwThEBa-49" style="edgeStyle=orthogonalEdgeStyle;rounded=0;orthogonalLoop=1;jettySize=auto;html=1;exitX=1;exitY=0.5;exitDx=0;exitDy=0;entryX=0.5;entryY=0;entryDx=0;entryDy=0;" edge="1" parent="1" source="jJX4rCLtaQs6YIwThEBa-47" target="jJX4rCLtaQs6YIwThEBa-4">
          <mxGeometry relative="1" as="geometry" />
        </mxCell>
        <mxCell id="jJX4rCLtaQs6YIwThEBa-50" style="edgeStyle=orthogonalEdgeStyle;rounded=0;orthogonalLoop=1;jettySize=auto;html=1;exitX=0;exitY=0.5;exitDx=0;exitDy=0;" edge="1" parent="1" source="jJX4rCLtaQs6YIwThEBa-47" target="jJX4rCLtaQs6YIwThEBa-2">
          <mxGeometry relative="1" as="geometry" />
        </mxCell>
        <mxCell id="jJX4rCLtaQs6YIwThEBa-47" value="提供" style="rhombus;whiteSpace=wrap;html=1;" vertex="1" parent="1">
          <mxGeometry x="210" y="190" width="80" height="50" as="geometry" />
        </mxCell>
        <mxCell id="jJX4rCLtaQs6YIwThEBa-65" style="edgeStyle=orthogonalEdgeStyle;rounded=0;orthogonalLoop=1;jettySize=auto;html=1;exitX=1;exitY=0.5;exitDx=0;exitDy=0;entryX=0.5;entryY=1;entryDx=0;entryDy=0;" edge="1" parent="1" source="jJX4rCLtaQs6YIwThEBa-52" target="jJX4rCLtaQs6YIwThEBa-5">
          <mxGeometry relative="1" as="geometry" />
        </mxCell>
        <mxCell id="jJX4rCLtaQs6YIwThEBa-52" value="航班安排" style="rhombus;whiteSpace=wrap;html=1;" vertex="1" parent="1">
          <mxGeometry x="519" y="380" width="100" height="50" as="geometry" />
        </mxCell>
        <mxCell id="jJX4rCLtaQs6YIwThEBa-54" value="" style="endArrow=none;html=1;exitX=0.75;exitY=0;exitDx=0;exitDy=0;entryX=0.5;entryY=1;entryDx=0;entryDy=0;entryPerimeter=0;" edge="1" parent="1" source="jJX4rCLtaQs6YIwThEBa-4" target="jJX4rCLtaQs6YIwThEBa-40">
          <mxGeometry width="50" height="50" relative="1" as="geometry">
            <mxPoint x="460" y="330" as="sourcePoint" />
            <mxPoint x="510" y="280" as="targetPoint" />
          </mxGeometry>
        </mxCell>
        <mxCell id="jJX4rCLtaQs6YIwThEBa-55" value="" style="endArrow=none;html=1;exitX=1;exitY=0;exitDx=0;exitDy=0;entryX=0.5;entryY=1;entryDx=0;entryDy=0;entryPerimeter=0;" edge="1" parent="1" source="jJX4rCLtaQs6YIwThEBa-4" target="jJX4rCLtaQs6YIwThEBa-39">
          <mxGeometry width="50" height="50" relative="1" as="geometry">
            <mxPoint x="460" y="330" as="sourcePoint" />
            <mxPoint x="510" y="280" as="targetPoint" />
          </mxGeometry>
        </mxCell>
        <mxCell id="jJX4rCLtaQs6YIwThEBa-56" value="" style="endArrow=none;html=1;entryX=0;entryY=0.5;entryDx=0;entryDy=0;entryPerimeter=0;exitX=1;exitY=0.25;exitDx=0;exitDy=0;" edge="1" parent="1" source="jJX4rCLtaQs6YIwThEBa-4" target="jJX4rCLtaQs6YIwThEBa-38">
          <mxGeometry width="50" height="50" relative="1" as="geometry">
            <mxPoint x="460" y="330" as="sourcePoint" />
            <mxPoint x="510" y="280" as="targetPoint" />
          </mxGeometry>
        </mxCell>
        <mxCell id="jJX4rCLtaQs6YIwThEBa-57" value="" style="endArrow=none;html=1;exitX=1;exitY=0.5;exitDx=0;exitDy=0;entryX=0;entryY=0.5;entryDx=0;entryDy=0;entryPerimeter=0;" edge="1" parent="1" source="jJX4rCLtaQs6YIwThEBa-4" target="jJX4rCLtaQs6YIwThEBa-9">
          <mxGeometry width="50" height="50" relative="1" as="geometry">
            <mxPoint x="460" y="330" as="sourcePoint" />
            <mxPoint x="510" y="280" as="targetPoint" />
          </mxGeometry>
        </mxCell>
        <mxCell id="jJX4rCLtaQs6YIwThEBa-62" value="起飞时间" style="strokeWidth=2;html=1;shape=mxgraph.flowchart.terminator;whiteSpace=wrap;" vertex="1" parent="1">
          <mxGeometry x="539" y="475" width="60" height="30" as="geometry" />
        </mxCell>
        <mxCell id="jJX4rCLtaQs6YIwThEBa-63" value="票价" style="strokeWidth=2;html=1;shape=mxgraph.flowchart.terminator;whiteSpace=wrap;" vertex="1" parent="1">
          <mxGeometry x="619" y="440" width="60" height="30" as="geometry" />
        </mxCell>
        <mxCell id="jJX4rCLtaQs6YIwThEBa-64" value="编号" style="strokeWidth=2;html=1;shape=mxgraph.flowchart.terminator;whiteSpace=wrap;" vertex="1" parent="1">
          <mxGeometry x="459" y="440" width="60" height="30" as="geometry" />
        </mxCell>
        <mxCell id="jJX4rCLtaQs6YIwThEBa-66" value="" style="endArrow=none;html=1;exitX=0.89;exitY=0.11;exitDx=0;exitDy=0;exitPerimeter=0;entryX=0;entryY=1;entryDx=0;entryDy=0;" edge="1" parent="1" source="jJX4rCLtaQs6YIwThEBa-64" target="jJX4rCLtaQs6YIwThEBa-52">
          <mxGeometry width="50" height="50" relative="1" as="geometry">
            <mxPoint x="579" y="330" as="sourcePoint" />
            <mxPoint x="629" y="280" as="targetPoint" />
          </mxGeometry>
        </mxCell>
        <mxCell id="jJX4rCLtaQs6YIwThEBa-67" value="" style="endArrow=none;html=1;exitX=0.5;exitY=0;exitDx=0;exitDy=0;exitPerimeter=0;entryX=0.5;entryY=1;entryDx=0;entryDy=0;" edge="1" parent="1" source="jJX4rCLtaQs6YIwThEBa-62" target="jJX4rCLtaQs6YIwThEBa-52">
          <mxGeometry width="50" height="50" relative="1" as="geometry">
            <mxPoint x="579" y="330" as="sourcePoint" />
            <mxPoint x="629" y="280" as="targetPoint" />
          </mxGeometry>
        </mxCell>
        <mxCell id="jJX4rCLtaQs6YIwThEBa-68" value="" style="endArrow=none;html=1;exitX=0.11;exitY=0.11;exitDx=0;exitDy=0;exitPerimeter=0;entryX=1;entryY=1;entryDx=0;entryDy=0;" edge="1" parent="1" source="jJX4rCLtaQs6YIwThEBa-63" target="jJX4rCLtaQs6YIwThEBa-52">
          <mxGeometry width="50" height="50" relative="1" as="geometry">
            <mxPoint x="579" y="330" as="sourcePoint" />
            <mxPoint x="629" y="280" as="targetPoint" />
          </mxGeometry>
        </mxCell>
      </root>
    </mxGraphModel>
  </diagram>
</mxfile>
